# xmcd CD database file
#
# Track frame offsets:
#	150
#	15231
#	32939
#	58336
#	76252
#	96656
#	114880
#	132375
#	150964
#	172183
#	190743
#
# Disc length: 2754 seconds
#
# Revision: 0
# Processed by: cddbd v1.5.2PL0 Copyright (c) Steve Scherf et al.
# Submitted via: CDex 1.51
#
DISCID=890ac00b
DTITLE=Deanna Bogart - Just A Wish Away
DYEAR=2014
DGENRE=Blues
TTITLE0=If It's Gonna Be Like This
TTITLE1=Fine By Me Good Bayou
TTITLE2=If You Have Crying Eyes
TTITLE3=Back And Forth Kid
TTITLE4=Collarbone
TTITLE5=Tightrope
TTITLE6=What Is Love Supposed To Do
TTITLE7=Maybe I Won't
TTITLE8=Conversing With Lincoln
TTITLE9=Hot Fun In The Summertime
TTITLE10=Deanna Bogart - Bye Bye Blackbird
EXTD=YEAR: 2014
EXTT0=
EXTT1=
EXTT2=
EXTT3=
EXTT4=
EXTT5=
EXTT6=
EXTT7=
EXTT8=
EXTT9=
EXTT10=
PLAYORDER=
